<?xml version="1.0" encoding="UTF-8"?>
<!DOCTYPE svg PUBLIC "-//W3C//DTD SVG 1.1//EN" "http://www.w3.org/Graphics/SVG/1.1/DTD/svg11.dtd">
<!-- Creator: CorelDRAW -->
<svg xmlns="http://www.w3.org/2000/svg" xml:space="preserve" width="210mm" height="297mm" version="1.1" style="shape-rendering:geometricPrecision; text-rendering:geometricPrecision; image-rendering:optimizeQuality; fill-rule:evenodd; clip-rule:evenodd"
viewBox="300 20000 21000 1200"
 xmlns:xlink="http://www.w3.org/1999/xlink"
 xmlns:xodm="http://www.corel.com/coreldraw/odm/2003">
 <defs>
  <style type="text/css">
   <![CDATA[
    .fil0 {fill:#332C2B;fill-rule:nonzero}
   ]]>
  </style>
 </defs>
 <g id="圖層_x0020_1">
  <metadata id="CorelCorpID_0Corel-Layer"/>
  <path class="fil0" d="M2282.51 8628.43l-70.66 1083.03c-42.39,-6.46 -132.48,-16.46 -269.68,-28.81 -82.43,-2.94 -179.59,-5.29 -292.05,-6.46l-29.44 553.86c117.77,2.35 299.71,-6.47 545.24,-25.87 -11.78,51.74 -29.44,136.99 -53.59,255.17 -12.94,69.97 -26.48,154.05 -41.8,252.83 -31.79,-6.47 -105.4,-17.05 -220.8,-30.58 -85.37,-7.05 -169.58,-9.4 -253.19,-7.05l-13.53 599.72 -968.01 0 -53.58 -1350.55c-8.83,-309.86 -34.74,-742.01 -77.13,-1295.29l1798.22 0zm2585.57 1265.89c0,405.69 -104.81,748.48 -313.83,1028.94 -220.22,292.8 -501.08,439.2 -844.35,439.2 -353.29,0 -638.86,-147.57 -857.31,-442.73 -206.08,-278.11 -309.13,-619.72 -309.13,-1025.41 0,-433.33 112.46,-773.17 336.81,-1020.12 211.38,-232.24 488.12,-348.07 829.63,-348.07 336.2,0 610,116.42 821.97,349.84 224.34,248.12 336.21,587.37 336.21,1018.35zm-830.22 302.8c0,-319.26 -107.75,-478.6 -323.85,-478.6 -210.2,0 -315.59,160.51 -315.59,482.13 0,128.76 27.67,248.71 83.02,360.42 61.82,125.24 138.37,187.56 229.05,187.56 88.31,0 166.63,-63.5 234.34,-191.09 61.82,-115.83 93.03,-236.36 93.03,-360.42zm2892.94 555.04c-11.78,45.86 -32.98,132.88 -64.19,259.88 -16.48,74.67 -30.02,162.28 -41.8,262.23l-1561.52 0c-5.88,-269.88 -20.01,-714.38 -42.98,-1333.5 -14.72,-316.91 -41.81,-754.36 -80.66,-1312.34l1197.63 0 -98.92 2194.28c111.87,0 279.09,-12.34 502.25,-36.45 46.52,-4.12 109.52,-15.87 190.19,-34.1zm2013.25 0c-11.77,45.86 -32.97,132.88 -64.18,259.88 -16.48,74.67 -30.02,162.28 -41.8,262.23l-1561.52 0c-5.89,-269.88 -20.02,-714.38 -42.98,-1333.5 -14.72,-316.91 -41.81,-754.36 -80.66,-1312.34l1197.62 0 -98.91 2194.28c111.87,0 279.09,-12.34 502.25,-36.45 46.52,-4.12 109.52,-15.87 190.18,-34.1zm2536.12 -857.84c0,405.69 -104.81,748.48 -313.83,1028.94 -220.21,292.8 -501.08,439.2 -844.35,439.2 -353.29,0 -638.85,-147.57 -857.31,-442.73 -206.07,-278.11 -309.12,-619.72 -309.12,-1025.41 0,-433.33 112.46,-773.17 336.8,-1020.12 211.38,-232.24 488.12,-348.07 829.63,-348.07 336.2,0 610.01,116.42 821.97,349.84 224.34,248.12 336.21,587.37 336.21,1018.35zm-830.22 302.8c0,-319.26 -107.74,-478.6 -323.84,-478.6 -210.2,0 -315.6,160.51 -315.6,482.13 0,128.76 27.67,248.71 83.02,360.42 61.82,125.24 138.37,187.56 229.05,187.56 88.32,0 166.63,-63.5 234.35,-191.09 61.82,-115.83 93.02,-236.36 93.02,-360.42zm4655.83 -1568.69c-101.27,283.4 -259.07,749.07 -473.4,1397.01 -93.03,301.03 -216.68,717.31 -370.95,1248.83l-618.25 0c-57.7,-241.06 -161.92,-652.64 -312.66,-1235.31 -94.2,299.86 -220.79,711.43 -379.77,1235.31l-611.19 0c-73.59,-262.82 -199.01,-692.62 -377.42,-1288.23 -104.22,-327.49 -259.08,-780.23 -463.39,-1357.61l1176.43 0c24.15,112.31 66.54,294.57 127.19,546.22l181.94 689.1c33.56,-95.84 83.02,-261.65 148.38,-498.01 -54.18,-201.08 -123.07,-446.85 -206.68,-737.31l1070.46 0c18.26,109.95 48.28,288.69 90.68,535.64 30.61,164.04 73,397.46 126.59,699.68l178.41 -703.21c32.38,-132.88 70.07,-310.44 113.05,-532.11l600.58 0zm2733.95 0c-45.92,87.02 -163.09,298.1 -350.34,632.07 -107.16,185.2 -267.31,449.2 -479.88,792.57l628.85 1221.2 -801.96 0 -326.79 -539.16c-143.66,218.13 -257.3,398.05 -341.51,539.16l-705.97 0c61.23,-91.72 195.48,-308.09 402.74,-649.11 80.67,-138.17 171.94,-295.16 273.21,-472.14 -75.96,-124.06 -198.43,-332.78 -367.42,-625.59 -184.29,-329.26 -347.39,-629.12 -488.71,-899l1187.04 0c14.72,48.22 46.51,142.29 95.38,282.23 30.04,80.55 67.13,167.57 111.29,260.47 28.85,-49.39 75.37,-134.06 138.37,-253.42 37.09,-74.67 80.08,-171.09 128.37,-289.28l897.33 0zm2564.38 0l-39.46 1114.2c-11.18,318.08 -17.07,799.04 -17.07,1443.45 -294.4,105.83 -594.69,158.75 -900.87,158.75 -377.42,0 -664.77,-75.26 -861.43,-225.78 -166.63,-127.59 -284.98,-325.73 -353.88,-595.61 -40.03,-155.22 -77.72,-439.21 -113.05,-851.37 -34.15,-381 -55.34,-729.07 -63.59,-1043.64l1112.86 0c-5.89,151.7 -12.96,398.64 -21.2,740.84 -3.54,191.09 -2.36,461.55 3.53,811.98 1.17,266.34 24.14,446.26 68.89,539.16 47.69,98.78 141.9,148.17 283.81,148.17 40.04,0 85.37,-11.76 134.83,-34.69 0,-236.37 -6.48,-612.66 -20.02,-1128.31 -11.18,-258.7 -31.2,-617.36 -61.23,-1077.15l847.88 0z"/>
 </g>
</svg>
