<svg xmlns="http://www.w3.org/2000/svg" version="1.1" xmlns:xlink="http://www.w3.org/1999/xlink" xmlns:svgjs="http://svgjs.dev/svgjs" width="2560" height="1440" preserveAspectRatio="none" viewBox="0 0 2560 1440"><g mask="url(&quot;#SvgjsMask1602&quot;)" fill="none"><rect width="2560" height="1440" x="0" y="0" fill="rgba(243, 245, 246, 1)"></rect><path d="M136.1 40.26L201.06 77.76L201.06 152.76L136.1 190.26L71.15 152.76L71.15 77.76zM136.1 265.26L201.06 302.76L201.06 377.76L136.1 415.26L71.15 377.76L71.15 302.76zM136.1 490.26L201.06 527.76L201.06 602.76L136.1 640.26L71.15 602.76L71.15 527.76zM71.15 827.76L136.1 865.26L136.1 940.26L71.15 977.76L6.2 940.26L6.2 865.26zM71.15 1277.76L136.1 1315.26L136.1 1390.26L71.15 1427.76L6.2 1390.26L6.2 1315.26zM201.06 152.76L266.01 190.26L266.01 265.26L201.06 302.76L136.1 265.26L136.1 190.26zM266.01 265.26L330.97 302.76L330.97 377.76L266.01 415.26L201.06 377.76L201.06 302.76zM201.06 602.76L266.01 640.26L266.01 715.26L201.06 752.76L136.1 715.26L136.1 640.26zM201.06 1277.76L266.01 1315.26L266.01 1390.26L201.06 1427.76L136.1 1390.26L136.1 1315.26zM330.97 377.76L395.92 415.26L395.92 490.26L330.97 527.76L266.01 490.26L266.01 415.26zM655.73 265.26L720.69 302.76L720.69 377.76L655.73 415.26L590.78 377.76L590.78 302.76zM655.73 490.26L720.69 527.76L720.69 602.76L655.73 640.26L590.78 602.76L590.78 527.76zM655.73 1390.26L720.69 1427.76L720.69 1502.76L655.73 1540.26L590.78 1502.76L590.78 1427.76zM720.69 152.76L785.64 190.26L785.64 265.26L720.69 302.76L655.73 265.26L655.73 190.26zM785.64 490.26L850.6 527.76L850.6 602.76L785.64 640.26L720.69 602.76L720.69 527.76zM720.69 827.76L785.64 865.26L785.64 940.26L720.69 977.76L655.73 940.26L655.73 865.26zM915.55 40.26L980.5 77.76L980.5 152.76L915.55 190.26L850.59 152.76L850.59 77.76zM850.59 377.76L915.55 415.26L915.55 490.26L850.59 527.76L785.64 490.26L785.64 415.26zM915.55 490.26L980.5 527.76L980.5 602.76L915.55 640.26L850.59 602.76L850.59 527.76zM980.5 602.76L1045.46 640.26L1045.46 715.26L980.5 752.76L915.55 715.26L915.55 640.26zM1045.46 715.26L1110.41 752.76L1110.41 827.76L1045.46 865.26L980.5 827.76L980.5 752.76zM1175.36 940.26L1240.32 977.76L1240.32 1052.76L1175.36 1090.26L1110.41 1052.76L1110.41 977.76zM1110.41 1277.76L1175.36 1315.26L1175.36 1390.26L1110.41 1427.76L1045.46 1390.26L1045.46 1315.26zM1240.32 -72.24L1305.27 -34.74L1305.27 40.26L1240.32 77.76L1175.36 40.26L1175.36 -34.74zM1435.18 40.26L1500.13 77.76L1500.13 152.76L1435.18 190.26L1370.23 152.76L1370.23 77.76zM1370.23 152.76L1435.18 190.26L1435.18 265.26L1370.23 302.76L1305.27 265.26L1305.27 190.26zM1435.18 265.26L1500.13 302.76L1500.13 377.76L1435.18 415.26L1370.23 377.76L1370.23 302.76zM1370.23 377.76L1435.18 415.26L1435.18 490.26L1370.23 527.76L1305.27 490.26L1305.27 415.26zM1435.18 715.26L1500.13 752.76L1500.13 827.76L1435.18 865.26L1370.23 827.76L1370.23 752.76zM1370.23 827.76L1435.18 865.26L1435.18 940.26L1370.23 977.76L1305.27 940.26L1305.27 865.26zM1500.13 1052.76L1565.09 1090.26L1565.09 1165.26L1500.13 1202.76L1435.18 1165.26L1435.18 1090.26zM1630.04 1277.76L1694.99 1315.26L1694.99 1390.26L1630.04 1427.76L1565.09 1390.26L1565.09 1315.26zM1694.99 1390.26L1759.95 1427.76L1759.95 1502.76L1694.99 1540.26L1630.04 1502.76L1630.04 1427.76zM1759.95 1052.76L1824.9 1090.26L1824.9 1165.26L1759.95 1202.76L1694.99 1165.26L1694.99 1090.26zM1889.86 -72.24L1954.81 -34.74L1954.81 40.26L1889.86 77.76L1824.9 40.26L1824.9 -34.74zM1889.86 152.76L1954.81 190.26L1954.81 265.26L1889.86 302.76L1824.9 265.26L1824.9 190.26zM1889.86 602.76L1954.81 640.26L1954.81 715.26L1889.86 752.76L1824.9 715.26L1824.9 640.26zM1889.86 827.76L1954.81 865.26L1954.81 940.26L1889.86 977.76L1824.9 940.26L1824.9 865.26zM2084.72 940.26L2149.67 977.76L2149.67 1052.76L2084.72 1090.26L2019.76 1052.76L2019.76 977.76zM2084.72 1390.26L2149.67 1427.76L2149.67 1502.76L2084.72 1540.26L2019.76 1502.76L2019.76 1427.76zM2214.62 1165.26L2279.58 1202.76L2279.58 1277.76L2214.62 1315.26L2149.67 1277.76L2149.67 1202.76zM2474.44 715.26L2539.39 752.76L2539.39 827.76L2474.44 865.26L2409.49 827.76L2409.49 752.76zM2409.49 1277.76L2474.44 1315.26L2474.44 1390.26L2409.49 1427.76L2344.53 1390.26L2344.53 1315.26zM2604.35 265.26L2669.3 302.76L2669.3 377.76L2604.35 415.26L2539.39 377.76L2539.39 302.76zM2539.39 377.76L2604.35 415.26L2604.35 490.26L2539.39 527.76L2474.44 490.26L2474.44 415.26zM2539.39 1052.76L2604.35 1090.26L2604.35 1165.26L2539.39 1202.76L2474.44 1165.26L2474.44 1090.26zM2539.39 1277.76L2604.35 1315.26L2604.35 1390.26L2539.39 1427.76L2474.44 1390.26L2474.44 1315.26z" stroke="rgba(148, 149, 151, 1)" stroke-width="2"></path><path d="M128.6 40.26 a7.5 7.5 0 1 0 15 0 a7.5 7.5 0 1 0 -15 0zM193.56 77.76 a7.5 7.5 0 1 0 15 0 a7.5 7.5 0 1 0 -15 0zM193.56 152.76 a7.5 7.5 0 1 0 15 0 a7.5 7.5 0 1 0 -15 0zM128.6 190.26 a7.5 7.5 0 1 0 15 0 a7.5 7.5 0 1 0 -15 0zM63.65 152.76 a7.5 7.5 0 1 0 15 0 a7.5 7.5 0 1 0 -15 0zM63.65 77.76 a7.5 7.5 0 1 0 15 0 a7.5 7.5 0 1 0 -15 0zM128.6 265.26 a7.5 7.5 0 1 0 15 0 a7.5 7.5 0 1 0 -15 0zM193.56 302.76 a7.5 7.5 0 1 0 15 0 a7.5 7.5 0 1 0 -15 0zM193.56 377.76 a7.5 7.5 0 1 0 15 0 a7.5 7.5 0 1 0 -15 0zM128.6 415.26 a7.5 7.5 0 1 0 15 0 a7.5 7.5 0 1 0 -15 0zM63.65 377.76 a7.5 7.5 0 1 0 15 0 a7.5 7.5 0 1 0 -15 0zM63.65 302.76 a7.5 7.5 0 1 0 15 0 a7.5 7.5 0 1 0 -15 0zM128.6 490.26 a7.5 7.5 0 1 0 15 0 a7.5 7.5 0 1 0 -15 0zM193.56 527.76 a7.5 7.5 0 1 0 15 0 a7.5 7.5 0 1 0 -15 0zM193.56 602.76 a7.5 7.5 0 1 0 15 0 a7.5 7.5 0 1 0 -15 0zM128.6 640.26 a7.5 7.5 0 1 0 15 0 a7.5 7.5 0 1 0 -15 0zM63.65 602.76 a7.5 7.5 0 1 0 15 0 a7.5 7.5 0 1 0 -15 0zM63.65 527.76 a7.5 7.5 0 1 0 15 0 a7.5 7.5 0 1 0 -15 0zM63.65 827.76 a7.5 7.5 0 1 0 15 0 a7.5 7.5 0 1 0 -15 0zM128.6 865.26 a7.5 7.5 0 1 0 15 0 a7.5 7.5 0 1 0 -15 0zM128.6 940.26 a7.5 7.5 0 1 0 15 0 a7.5 7.5 0 1 0 -15 0zM63.65 977.76 a7.5 7.5 0 1 0 15 0 a7.5 7.5 0 1 0 -15 0zM-1.3 940.26 a7.5 7.5 0 1 0 15 0 a7.5 7.5 0 1 0 -15 0zM-1.3 865.26 a7.5 7.5 0 1 0 15 0 a7.5 7.5 0 1 0 -15 0zM63.65 1277.76 a7.5 7.5 0 1 0 15 0 a7.5 7.5 0 1 0 -15 0zM128.6 1315.26 a7.5 7.5 0 1 0 15 0 a7.5 7.5 0 1 0 -15 0zM128.6 1390.26 a7.5 7.5 0 1 0 15 0 a7.5 7.5 0 1 0 -15 0zM63.65 1427.76 a7.5 7.5 0 1 0 15 0 a7.5 7.5 0 1 0 -15 0zM-1.3 1390.26 a7.5 7.5 0 1 0 15 0 a7.5 7.5 0 1 0 -15 0zM-1.3 1315.26 a7.5 7.5 0 1 0 15 0 a7.5 7.5 0 1 0 -15 0zM258.51 190.26 a7.5 7.5 0 1 0 15 0 a7.5 7.5 0 1 0 -15 0zM258.51 265.26 a7.5 7.5 0 1 0 15 0 a7.5 7.5 0 1 0 -15 0zM323.47 302.76 a7.5 7.5 0 1 0 15 0 a7.5 7.5 0 1 0 -15 0zM323.47 377.76 a7.5 7.5 0 1 0 15 0 a7.5 7.5 0 1 0 -15 0zM258.51 415.26 a7.5 7.5 0 1 0 15 0 a7.5 7.5 0 1 0 -15 0zM258.51 640.26 a7.5 7.5 0 1 0 15 0 a7.5 7.5 0 1 0 -15 0zM258.51 715.26 a7.5 7.5 0 1 0 15 0 a7.5 7.5 0 1 0 -15 0zM193.56 752.76 a7.5 7.5 0 1 0 15 0 a7.5 7.5 0 1 0 -15 0zM128.6 715.26 a7.5 7.5 0 1 0 15 0 a7.5 7.5 0 1 0 -15 0zM193.56 1277.76 a7.5 7.5 0 1 0 15 0 a7.5 7.5 0 1 0 -15 0zM258.51 1315.26 a7.5 7.5 0 1 0 15 0 a7.5 7.5 0 1 0 -15 0zM258.51 1390.26 a7.5 7.5 0 1 0 15 0 a7.5 7.5 0 1 0 -15 0zM193.56 1427.76 a7.5 7.5 0 1 0 15 0 a7.5 7.5 0 1 0 -15 0zM388.42 415.26 a7.5 7.5 0 1 0 15 0 a7.5 7.5 0 1 0 -15 0zM388.42 490.26 a7.5 7.5 0 1 0 15 0 a7.5 7.5 0 1 0 -15 0zM323.47 527.76 a7.5 7.5 0 1 0 15 0 a7.5 7.5 0 1 0 -15 0zM258.51 490.26 a7.5 7.5 0 1 0 15 0 a7.5 7.5 0 1 0 -15 0zM648.23 265.26 a7.5 7.5 0 1 0 15 0 a7.5 7.5 0 1 0 -15 0zM713.19 302.76 a7.5 7.5 0 1 0 15 0 a7.5 7.5 0 1 0 -15 0zM713.19 377.76 a7.5 7.5 0 1 0 15 0 a7.5 7.5 0 1 0 -15 0zM648.23 415.26 a7.5 7.5 0 1 0 15 0 a7.5 7.5 0 1 0 -15 0zM583.28 377.76 a7.5 7.5 0 1 0 15 0 a7.5 7.5 0 1 0 -15 0zM583.28 302.76 a7.5 7.5 0 1 0 15 0 a7.5 7.5 0 1 0 -15 0zM648.23 490.26 a7.5 7.5 0 1 0 15 0 a7.5 7.5 0 1 0 -15 0zM713.19 527.76 a7.5 7.5 0 1 0 15 0 a7.5 7.5 0 1 0 -15 0zM713.19 602.76 a7.5 7.5 0 1 0 15 0 a7.5 7.5 0 1 0 -15 0zM648.23 640.26 a7.5 7.5 0 1 0 15 0 a7.5 7.5 0 1 0 -15 0zM583.28 602.76 a7.5 7.5 0 1 0 15 0 a7.5 7.5 0 1 0 -15 0zM583.28 527.76 a7.5 7.5 0 1 0 15 0 a7.5 7.5 0 1 0 -15 0zM648.23 1390.26 a7.5 7.5 0 1 0 15 0 a7.5 7.5 0 1 0 -15 0zM713.19 1427.76 a7.5 7.5 0 1 0 15 0 a7.5 7.5 0 1 0 -15 0zM713.19 1502.76 a7.5 7.5 0 1 0 15 0 a7.5 7.5 0 1 0 -15 0zM648.23 1540.26 a7.5 7.5 0 1 0 15 0 a7.5 7.5 0 1 0 -15 0zM583.28 1502.76 a7.5 7.5 0 1 0 15 0 a7.5 7.5 0 1 0 -15 0zM583.28 1427.76 a7.5 7.5 0 1 0 15 0 a7.5 7.5 0 1 0 -15 0zM713.19 152.76 a7.5 7.5 0 1 0 15 0 a7.5 7.5 0 1 0 -15 0zM778.14 190.26 a7.5 7.5 0 1 0 15 0 a7.5 7.5 0 1 0 -15 0zM778.14 265.26 a7.5 7.5 0 1 0 15 0 a7.5 7.5 0 1 0 -15 0zM648.23 190.26 a7.5 7.5 0 1 0 15 0 a7.5 7.5 0 1 0 -15 0zM778.14 490.26 a7.5 7.5 0 1 0 15 0 a7.5 7.5 0 1 0 -15 0zM843.1 527.76 a7.5 7.5 0 1 0 15 0 a7.5 7.5 0 1 0 -15 0zM843.1 602.76 a7.5 7.5 0 1 0 15 0 a7.5 7.5 0 1 0 -15 0zM778.14 640.26 a7.5 7.5 0 1 0 15 0 a7.5 7.5 0 1 0 -15 0zM713.19 827.76 a7.5 7.5 0 1 0 15 0 a7.5 7.5 0 1 0 -15 0zM778.14 865.26 a7.5 7.5 0 1 0 15 0 a7.5 7.5 0 1 0 -15 0zM778.14 940.26 a7.5 7.5 0 1 0 15 0 a7.5 7.5 0 1 0 -15 0zM713.19 977.76 a7.5 7.5 0 1 0 15 0 a7.5 7.5 0 1 0 -15 0zM648.23 940.26 a7.5 7.5 0 1 0 15 0 a7.5 7.5 0 1 0 -15 0zM648.23 865.26 a7.5 7.5 0 1 0 15 0 a7.5 7.5 0 1 0 -15 0zM908.05 40.26 a7.5 7.5 0 1 0 15 0 a7.5 7.5 0 1 0 -15 0zM973 77.76 a7.5 7.5 0 1 0 15 0 a7.5 7.5 0 1 0 -15 0zM973 152.76 a7.5 7.5 0 1 0 15 0 a7.5 7.5 0 1 0 -15 0zM908.05 190.26 a7.5 7.5 0 1 0 15 0 a7.5 7.5 0 1 0 -15 0zM843.09 152.76 a7.5 7.5 0 1 0 15 0 a7.5 7.5 0 1 0 -15 0zM843.09 77.76 a7.5 7.5 0 1 0 15 0 a7.5 7.5 0 1 0 -15 0zM843.09 377.76 a7.5 7.5 0 1 0 15 0 a7.5 7.5 0 1 0 -15 0zM908.05 415.26 a7.5 7.5 0 1 0 15 0 a7.5 7.5 0 1 0 -15 0zM908.05 490.26 a7.5 7.5 0 1 0 15 0 a7.5 7.5 0 1 0 -15 0zM843.09 527.76 a7.5 7.5 0 1 0 15 0 a7.5 7.5 0 1 0 -15 0zM778.14 415.26 a7.5 7.5 0 1 0 15 0 a7.5 7.5 0 1 0 -15 0zM973 527.76 a7.5 7.5 0 1 0 15 0 a7.5 7.5 0 1 0 -15 0zM973 602.76 a7.5 7.5 0 1 0 15 0 a7.5 7.5 0 1 0 -15 0zM908.05 640.26 a7.5 7.5 0 1 0 15 0 a7.5 7.5 0 1 0 -15 0zM843.09 602.76 a7.5 7.5 0 1 0 15 0 a7.5 7.5 0 1 0 -15 0zM1037.96 640.26 a7.5 7.5 0 1 0 15 0 a7.5 7.5 0 1 0 -15 0zM1037.96 715.26 a7.5 7.5 0 1 0 15 0 a7.5 7.5 0 1 0 -15 0zM973 752.76 a7.5 7.5 0 1 0 15 0 a7.5 7.5 0 1 0 -15 0zM908.05 715.26 a7.5 7.5 0 1 0 15 0 a7.5 7.5 0 1 0 -15 0zM1102.91 752.76 a7.5 7.5 0 1 0 15 0 a7.5 7.5 0 1 0 -15 0zM1102.91 827.76 a7.5 7.5 0 1 0 15 0 a7.5 7.5 0 1 0 -15 0zM1037.96 865.26 a7.5 7.5 0 1 0 15 0 a7.5 7.5 0 1 0 -15 0zM973 827.76 a7.5 7.5 0 1 0 15 0 a7.5 7.5 0 1 0 -15 0zM1167.86 940.26 a7.5 7.5 0 1 0 15 0 a7.5 7.5 0 1 0 -15 0zM1232.82 977.76 a7.5 7.5 0 1 0 15 0 a7.5 7.5 0 1 0 -15 0zM1232.82 1052.76 a7.5 7.5 0 1 0 15 0 a7.5 7.5 0 1 0 -15 0zM1167.86 1090.26 a7.5 7.5 0 1 0 15 0 a7.5 7.5 0 1 0 -15 0zM1102.91 1052.76 a7.5 7.5 0 1 0 15 0 a7.5 7.5 0 1 0 -15 0zM1102.91 977.76 a7.5 7.5 0 1 0 15 0 a7.5 7.5 0 1 0 -15 0zM1102.91 1277.76 a7.5 7.5 0 1 0 15 0 a7.5 7.5 0 1 0 -15 0zM1167.86 1315.26 a7.5 7.5 0 1 0 15 0 a7.5 7.5 0 1 0 -15 0zM1167.86 1390.26 a7.5 7.5 0 1 0 15 0 a7.5 7.5 0 1 0 -15 0zM1102.91 1427.76 a7.5 7.5 0 1 0 15 0 a7.5 7.5 0 1 0 -15 0zM1037.96 1390.26 a7.5 7.5 0 1 0 15 0 a7.5 7.5 0 1 0 -15 0zM1037.96 1315.26 a7.5 7.5 0 1 0 15 0 a7.5 7.5 0 1 0 -15 0zM1232.82 -72.24 a7.5 7.5 0 1 0 15 0 a7.5 7.5 0 1 0 -15 0zM1297.77 -34.74 a7.5 7.5 0 1 0 15 0 a7.5 7.5 0 1 0 -15 0zM1297.77 40.26 a7.5 7.5 0 1 0 15 0 a7.5 7.5 0 1 0 -15 0zM1232.82 77.76 a7.5 7.5 0 1 0 15 0 a7.5 7.5 0 1 0 -15 0zM1167.86 40.26 a7.5 7.5 0 1 0 15 0 a7.5 7.5 0 1 0 -15 0zM1167.86 -34.74 a7.5 7.5 0 1 0 15 0 a7.5 7.5 0 1 0 -15 0zM1427.68 40.26 a7.5 7.5 0 1 0 15 0 a7.5 7.5 0 1 0 -15 0zM1492.63 77.76 a7.5 7.5 0 1 0 15 0 a7.5 7.5 0 1 0 -15 0zM1492.63 152.76 a7.5 7.5 0 1 0 15 0 a7.5 7.5 0 1 0 -15 0zM1427.68 190.26 a7.5 7.5 0 1 0 15 0 a7.5 7.5 0 1 0 -15 0zM1362.73 152.76 a7.5 7.5 0 1 0 15 0 a7.5 7.5 0 1 0 -15 0zM1362.73 77.76 a7.5 7.5 0 1 0 15 0 a7.5 7.5 0 1 0 -15 0zM1427.68 265.26 a7.5 7.5 0 1 0 15 0 a7.5 7.5 0 1 0 -15 0zM1362.73 302.76 a7.5 7.5 0 1 0 15 0 a7.5 7.5 0 1 0 -15 0zM1297.77 265.26 a7.5 7.5 0 1 0 15 0 a7.5 7.5 0 1 0 -15 0zM1297.77 190.26 a7.5 7.5 0 1 0 15 0 a7.5 7.5 0 1 0 -15 0zM1492.63 302.76 a7.5 7.5 0 1 0 15 0 a7.5 7.5 0 1 0 -15 0zM1492.63 377.76 a7.5 7.5 0 1 0 15 0 a7.5 7.5 0 1 0 -15 0zM1427.68 415.26 a7.5 7.5 0 1 0 15 0 a7.5 7.5 0 1 0 -15 0zM1362.73 377.76 a7.5 7.5 0 1 0 15 0 a7.5 7.5 0 1 0 -15 0zM1427.68 490.26 a7.5 7.5 0 1 0 15 0 a7.5 7.5 0 1 0 -15 0zM1362.73 527.76 a7.5 7.5 0 1 0 15 0 a7.5 7.5 0 1 0 -15 0zM1297.77 490.26 a7.5 7.5 0 1 0 15 0 a7.5 7.5 0 1 0 -15 0zM1297.77 415.26 a7.5 7.5 0 1 0 15 0 a7.5 7.5 0 1 0 -15 0zM1427.68 715.26 a7.5 7.5 0 1 0 15 0 a7.5 7.5 0 1 0 -15 0zM1492.63 752.76 a7.5 7.5 0 1 0 15 0 a7.5 7.5 0 1 0 -15 0zM1492.63 827.76 a7.5 7.5 0 1 0 15 0 a7.5 7.5 0 1 0 -15 0zM1427.68 865.26 a7.5 7.5 0 1 0 15 0 a7.5 7.5 0 1 0 -15 0zM1362.73 827.76 a7.5 7.5 0 1 0 15 0 a7.5 7.5 0 1 0 -15 0zM1362.73 752.76 a7.5 7.5 0 1 0 15 0 a7.5 7.5 0 1 0 -15 0zM1427.68 940.26 a7.5 7.5 0 1 0 15 0 a7.5 7.5 0 1 0 -15 0zM1362.73 977.76 a7.5 7.5 0 1 0 15 0 a7.5 7.5 0 1 0 -15 0zM1297.77 940.26 a7.5 7.5 0 1 0 15 0 a7.5 7.5 0 1 0 -15 0zM1297.77 865.26 a7.5 7.5 0 1 0 15 0 a7.5 7.5 0 1 0 -15 0zM1492.63 1052.76 a7.5 7.5 0 1 0 15 0 a7.5 7.5 0 1 0 -15 0zM1557.59 1090.26 a7.5 7.5 0 1 0 15 0 a7.5 7.5 0 1 0 -15 0zM1557.59 1165.26 a7.5 7.5 0 1 0 15 0 a7.5 7.5 0 1 0 -15 0zM1492.63 1202.76 a7.5 7.5 0 1 0 15 0 a7.5 7.5 0 1 0 -15 0zM1427.68 1165.26 a7.5 7.5 0 1 0 15 0 a7.5 7.5 0 1 0 -15 0zM1427.68 1090.26 a7.5 7.5 0 1 0 15 0 a7.5 7.5 0 1 0 -15 0zM1622.54 1277.76 a7.5 7.5 0 1 0 15 0 a7.5 7.5 0 1 0 -15 0zM1687.49 1315.26 a7.5 7.5 0 1 0 15 0 a7.5 7.5 0 1 0 -15 0zM1687.49 1390.26 a7.5 7.5 0 1 0 15 0 a7.5 7.5 0 1 0 -15 0zM1622.54 1427.76 a7.5 7.5 0 1 0 15 0 a7.5 7.5 0 1 0 -15 0zM1557.59 1390.26 a7.5 7.5 0 1 0 15 0 a7.5 7.5 0 1 0 -15 0zM1557.59 1315.26 a7.5 7.5 0 1 0 15 0 a7.5 7.5 0 1 0 -15 0zM1752.45 1427.76 a7.5 7.5 0 1 0 15 0 a7.5 7.5 0 1 0 -15 0zM1752.45 1502.76 a7.5 7.5 0 1 0 15 0 a7.5 7.5 0 1 0 -15 0zM1687.49 1540.26 a7.5 7.5 0 1 0 15 0 a7.5 7.5 0 1 0 -15 0zM1622.54 1502.76 a7.5 7.5 0 1 0 15 0 a7.5 7.5 0 1 0 -15 0zM1752.45 1052.76 a7.5 7.5 0 1 0 15 0 a7.5 7.5 0 1 0 -15 0zM1817.4 1090.26 a7.5 7.5 0 1 0 15 0 a7.5 7.5 0 1 0 -15 0zM1817.4 1165.26 a7.5 7.5 0 1 0 15 0 a7.5 7.5 0 1 0 -15 0zM1752.45 1202.76 a7.5 7.5 0 1 0 15 0 a7.5 7.5 0 1 0 -15 0zM1687.49 1165.26 a7.5 7.5 0 1 0 15 0 a7.5 7.5 0 1 0 -15 0zM1687.49 1090.26 a7.5 7.5 0 1 0 15 0 a7.5 7.5 0 1 0 -15 0zM1882.36 -72.24 a7.5 7.5 0 1 0 15 0 a7.5 7.5 0 1 0 -15 0zM1947.31 -34.74 a7.5 7.5 0 1 0 15 0 a7.5 7.5 0 1 0 -15 0zM1947.31 40.26 a7.5 7.5 0 1 0 15 0 a7.5 7.5 0 1 0 -15 0zM1882.36 77.76 a7.5 7.5 0 1 0 15 0 a7.5 7.5 0 1 0 -15 0zM1817.4 40.26 a7.5 7.5 0 1 0 15 0 a7.5 7.5 0 1 0 -15 0zM1817.4 -34.74 a7.5 7.5 0 1 0 15 0 a7.5 7.5 0 1 0 -15 0zM1882.36 152.76 a7.5 7.5 0 1 0 15 0 a7.5 7.5 0 1 0 -15 0zM1947.31 190.26 a7.5 7.5 0 1 0 15 0 a7.5 7.5 0 1 0 -15 0zM1947.31 265.26 a7.5 7.5 0 1 0 15 0 a7.5 7.5 0 1 0 -15 0zM1882.36 302.76 a7.5 7.5 0 1 0 15 0 a7.5 7.5 0 1 0 -15 0zM1817.4 265.26 a7.5 7.5 0 1 0 15 0 a7.5 7.5 0 1 0 -15 0zM1817.4 190.26 a7.5 7.5 0 1 0 15 0 a7.5 7.5 0 1 0 -15 0zM1882.36 602.76 a7.5 7.5 0 1 0 15 0 a7.5 7.5 0 1 0 -15 0zM1947.31 640.26 a7.5 7.5 0 1 0 15 0 a7.5 7.5 0 1 0 -15 0zM1947.31 715.26 a7.5 7.5 0 1 0 15 0 a7.5 7.5 0 1 0 -15 0zM1882.36 752.76 a7.5 7.5 0 1 0 15 0 a7.5 7.5 0 1 0 -15 0zM1817.4 715.26 a7.5 7.5 0 1 0 15 0 a7.5 7.5 0 1 0 -15 0zM1817.4 640.26 a7.5 7.5 0 1 0 15 0 a7.5 7.5 0 1 0 -15 0zM1882.36 827.76 a7.5 7.5 0 1 0 15 0 a7.5 7.5 0 1 0 -15 0zM1947.31 865.26 a7.5 7.5 0 1 0 15 0 a7.5 7.5 0 1 0 -15 0zM1947.31 940.26 a7.5 7.5 0 1 0 15 0 a7.5 7.5 0 1 0 -15 0zM1882.36 977.76 a7.5 7.5 0 1 0 15 0 a7.5 7.5 0 1 0 -15 0zM1817.4 940.26 a7.5 7.5 0 1 0 15 0 a7.5 7.5 0 1 0 -15 0zM1817.4 865.26 a7.5 7.5 0 1 0 15 0 a7.5 7.5 0 1 0 -15 0zM2077.22 940.26 a7.5 7.5 0 1 0 15 0 a7.5 7.5 0 1 0 -15 0zM2142.17 977.76 a7.5 7.5 0 1 0 15 0 a7.5 7.5 0 1 0 -15 0zM2142.17 1052.76 a7.5 7.5 0 1 0 15 0 a7.5 7.5 0 1 0 -15 0zM2077.22 1090.26 a7.5 7.5 0 1 0 15 0 a7.5 7.5 0 1 0 -15 0zM2012.26 1052.76 a7.5 7.5 0 1 0 15 0 a7.5 7.5 0 1 0 -15 0zM2012.26 977.76 a7.5 7.5 0 1 0 15 0 a7.5 7.5 0 1 0 -15 0zM2077.22 1390.26 a7.5 7.5 0 1 0 15 0 a7.5 7.5 0 1 0 -15 0zM2142.17 1427.76 a7.5 7.5 0 1 0 15 0 a7.5 7.5 0 1 0 -15 0zM2142.17 1502.76 a7.5 7.5 0 1 0 15 0 a7.5 7.5 0 1 0 -15 0zM2077.22 1540.26 a7.5 7.5 0 1 0 15 0 a7.5 7.5 0 1 0 -15 0zM2012.26 1502.76 a7.5 7.5 0 1 0 15 0 a7.5 7.5 0 1 0 -15 0zM2012.26 1427.76 a7.5 7.5 0 1 0 15 0 a7.5 7.5 0 1 0 -15 0zM2207.12 1165.26 a7.5 7.5 0 1 0 15 0 a7.5 7.5 0 1 0 -15 0zM2272.08 1202.76 a7.5 7.5 0 1 0 15 0 a7.5 7.5 0 1 0 -15 0zM2272.08 1277.76 a7.5 7.5 0 1 0 15 0 a7.5 7.5 0 1 0 -15 0zM2207.12 1315.26 a7.5 7.5 0 1 0 15 0 a7.5 7.5 0 1 0 -15 0zM2142.17 1277.76 a7.5 7.5 0 1 0 15 0 a7.5 7.5 0 1 0 -15 0zM2142.17 1202.76 a7.5 7.5 0 1 0 15 0 a7.5 7.5 0 1 0 -15 0zM2466.94 715.26 a7.5 7.5 0 1 0 15 0 a7.5 7.5 0 1 0 -15 0zM2531.89 752.76 a7.5 7.5 0 1 0 15 0 a7.5 7.5 0 1 0 -15 0zM2531.89 827.76 a7.5 7.5 0 1 0 15 0 a7.5 7.5 0 1 0 -15 0zM2466.94 865.26 a7.5 7.5 0 1 0 15 0 a7.5 7.5 0 1 0 -15 0zM2401.99 827.76 a7.5 7.5 0 1 0 15 0 a7.5 7.5 0 1 0 -15 0zM2401.99 752.76 a7.5 7.5 0 1 0 15 0 a7.5 7.5 0 1 0 -15 0zM2401.99 1277.76 a7.5 7.5 0 1 0 15 0 a7.5 7.5 0 1 0 -15 0zM2466.94 1315.26 a7.5 7.5 0 1 0 15 0 a7.5 7.5 0 1 0 -15 0zM2466.94 1390.26 a7.5 7.5 0 1 0 15 0 a7.5 7.5 0 1 0 -15 0zM2401.99 1427.76 a7.5 7.5 0 1 0 15 0 a7.5 7.5 0 1 0 -15 0zM2337.03 1390.26 a7.5 7.5 0 1 0 15 0 a7.5 7.5 0 1 0 -15 0zM2337.03 1315.26 a7.5 7.5 0 1 0 15 0 a7.5 7.5 0 1 0 -15 0zM2596.85 265.26 a7.5 7.5 0 1 0 15 0 a7.5 7.5 0 1 0 -15 0zM2661.8 302.76 a7.5 7.5 0 1 0 15 0 a7.5 7.5 0 1 0 -15 0zM2661.8 377.76 a7.5 7.5 0 1 0 15 0 a7.5 7.5 0 1 0 -15 0zM2596.85 415.26 a7.5 7.5 0 1 0 15 0 a7.5 7.5 0 1 0 -15 0zM2531.89 377.76 a7.5 7.5 0 1 0 15 0 a7.5 7.5 0 1 0 -15 0zM2531.89 302.76 a7.5 7.5 0 1 0 15 0 a7.5 7.5 0 1 0 -15 0zM2596.85 490.26 a7.5 7.5 0 1 0 15 0 a7.5 7.5 0 1 0 -15 0zM2531.89 527.76 a7.5 7.5 0 1 0 15 0 a7.5 7.5 0 1 0 -15 0zM2466.94 490.26 a7.5 7.5 0 1 0 15 0 a7.5 7.5 0 1 0 -15 0zM2466.94 415.26 a7.5 7.5 0 1 0 15 0 a7.5 7.5 0 1 0 -15 0zM2531.89 1052.76 a7.5 7.5 0 1 0 15 0 a7.5 7.5 0 1 0 -15 0zM2596.85 1090.26 a7.5 7.5 0 1 0 15 0 a7.5 7.5 0 1 0 -15 0zM2596.85 1165.26 a7.5 7.5 0 1 0 15 0 a7.5 7.5 0 1 0 -15 0zM2531.89 1202.76 a7.5 7.5 0 1 0 15 0 a7.5 7.5 0 1 0 -15 0zM2466.94 1165.26 a7.5 7.5 0 1 0 15 0 a7.5 7.5 0 1 0 -15 0zM2466.94 1090.26 a7.5 7.5 0 1 0 15 0 a7.5 7.5 0 1 0 -15 0zM2531.89 1277.76 a7.5 7.5 0 1 0 15 0 a7.5 7.5 0 1 0 -15 0zM2596.85 1315.26 a7.5 7.5 0 1 0 15 0 a7.5 7.5 0 1 0 -15 0zM2596.85 1390.26 a7.5 7.5 0 1 0 15 0 a7.5 7.5 0 1 0 -15 0zM2531.89 1427.76 a7.5 7.5 0 1 0 15 0 a7.5 7.5 0 1 0 -15 0z" fill="rgba(148, 149, 151, 1)"></path><path d="M125.03 831.69L235.02 895.19L235.02 1022.19L125.03 1085.69L15.04 1022.19L15.04 895.19zM15.04 1403.19L125.03 1466.69L125.03 1593.69L15.04 1657.19L-94.95 1593.69L-94.95 1466.69zM345.01 69.69L454.99 133.19L454.99 260.19L345.01 323.69L235.02 260.19L235.02 133.19zM235.02 641.19L345.01 704.69L345.01 831.69L235.02 895.19L125.03 831.69L125.03 704.69zM235.02 1022.19L345.01 1085.69L345.01 1212.69L235.02 1276.19L125.03 1212.69L125.03 1085.69zM345.01 1212.69L454.99 1276.19L454.99 1403.19L345.01 1466.69L235.02 1403.19L235.02 1276.19zM564.98 69.69L674.97 133.19L674.97 260.19L564.98 323.69L454.99 260.19L454.99 133.19zM564.98 450.69L674.97 514.19L674.97 641.19L564.98 704.69L454.99 641.19L454.99 514.19zM454.99 1022.19L564.98 1085.69L564.98 1212.69L454.99 1276.19L345.01 1212.69L345.01 1085.69zM784.96 69.69L894.95 133.19L894.95 260.19L784.96 323.69L674.97 260.19L674.97 133.19zM674.97 260.19L784.96 323.69L784.96 450.69L674.97 514.19L564.98 450.69L564.98 323.69zM784.96 450.69L894.95 514.19L894.95 641.19L784.96 704.69L674.97 641.19L674.97 514.19zM784.96 831.69L894.95 895.19L894.95 1022.19L784.96 1085.69L674.97 1022.19L674.97 895.19zM894.95 -120.81L1004.94 -57.31L1004.94 69.69L894.95 133.19L784.96 69.69L784.96 -57.31zM1004.94 69.69L1114.92 133.19L1114.92 260.19L1004.94 323.69L894.95 260.19L894.95 133.19zM894.95 1022.19L1004.94 1085.69L1004.94 1212.69L894.95 1276.19L784.96 1212.69L784.96 1085.69zM1004.94 1212.69L1114.92 1276.19L1114.92 1403.19L1004.94 1466.69L894.95 1403.19L894.95 1276.19zM1224.91 69.69L1334.9 133.19L1334.9 260.19L1224.91 323.69L1114.92 260.19L1114.92 133.19zM1114.92 260.19L1224.91 323.69L1224.91 450.69L1114.92 514.19L1004.94 450.69L1004.94 323.69zM1224.91 450.69L1334.9 514.19L1334.9 641.19L1224.91 704.69L1114.92 641.19L1114.92 514.19zM1114.92 1022.19L1224.91 1085.69L1224.91 1212.69L1114.92 1276.19L1004.94 1212.69L1004.94 1085.69zM1334.9 641.19L1444.89 704.69L1444.89 831.69L1334.9 895.19L1224.91 831.69L1224.91 704.69zM1444.89 831.69L1554.88 895.19L1554.88 1022.19L1444.89 1085.69L1334.9 1022.19L1334.9 895.19zM1334.9 1022.19L1444.89 1085.69L1444.89 1212.69L1334.9 1276.19L1224.91 1212.69L1224.91 1085.69zM1334.9 1403.19L1444.89 1466.69L1444.89 1593.69L1334.9 1657.19L1224.91 1593.69L1224.91 1466.69zM1664.87 69.69L1774.85 133.19L1774.85 260.19L1664.87 323.69L1554.88 260.19L1554.88 133.19zM1554.88 1403.19L1664.87 1466.69L1664.87 1593.69L1554.88 1657.19L1444.89 1593.69L1444.89 1466.69zM1774.85 -120.81L1884.84 -57.31L1884.84 69.69L1774.85 133.19L1664.87 69.69L1664.87 -57.31zM1774.85 260.19L1884.84 323.69L1884.84 450.69L1774.85 514.19L1664.87 450.69L1664.87 323.69zM1774.85 1022.19L1884.84 1085.69L1884.84 1212.69L1774.85 1276.19L1664.87 1212.69L1664.87 1085.69zM1774.85 1403.19L1884.84 1466.69L1884.84 1593.69L1774.85 1657.19L1664.87 1593.69L1664.87 1466.69zM1994.83 260.19L2104.82 323.69L2104.82 450.69L1994.83 514.19L1884.84 450.69L1884.84 323.69zM1994.83 1022.19L2104.82 1085.69L2104.82 1212.69L1994.83 1276.19L1884.84 1212.69L1884.84 1085.69zM2324.8 450.69L2434.78 514.19L2434.78 641.19L2324.8 704.69L2214.81 641.19L2214.81 514.19zM2214.81 641.19L2324.8 704.69L2324.8 831.69L2214.81 895.19L2104.82 831.69L2104.82 704.69zM2324.8 831.69L2434.78 895.19L2434.78 1022.19L2324.8 1085.69L2214.81 1022.19L2214.81 895.19zM2214.81 1022.19L2324.8 1085.69L2324.8 1212.69L2214.81 1276.19L2104.82 1212.69L2104.82 1085.69zM2324.8 1212.69L2434.78 1276.19L2434.78 1403.19L2324.8 1466.69L2214.81 1403.19L2214.81 1276.19zM2214.81 1403.19L2324.8 1466.69L2324.8 1593.69L2214.81 1657.19L2104.82 1593.69L2104.82 1466.69zM2544.77 69.69L2654.76 133.19L2654.76 260.19L2544.77 323.69L2434.78 260.19L2434.78 133.19zM2544.77 831.69L2654.76 895.19L2654.76 1022.19L2544.77 1085.69L2434.78 1022.19L2434.78 895.19zM2434.78 1403.19L2544.77 1466.69L2544.77 1593.69L2434.78 1657.19L2324.8 1593.69L2324.8 1466.69z" stroke="rgba(185, 187, 188, 0.93)" stroke-width="2"></path></g><defs><mask id="SvgjsMask1602"><rect width="2560" height="1440" fill="#ffffff"></rect></mask></defs></svg>